<?xml version="1.0" encoding="utf-8"?>
<!-- Generator: Adobe Illustrator 25.3.0, SVG Export Plug-In . SVG Version: 6.00 Build 0)  -->
<svg version="1.1" id="Layer_1" xmlns="http://www.w3.org/2000/svg" xmlns:xlink="http://www.w3.org/1999/xlink" x="0px" y="0px"
	 viewBox="0 0 200 200" style="enable-background:new 0 0 200 200;" xml:space="preserve">
<style type="text/css">
	.st0{fill:#F67280;stroke:#000000;stroke-miterlimit:10;}
	.st1{fill:#355C7D;}
</style>
<g>
	<rect x="55.1" y="49.8" class="st0" width="96" height="97.6"/>
	<g>
		<g>
			<g>
				<path class="st1" d="M136.3,129.8c-1.6,0-2.9,1.3-2.9,2.9c0,1.6,1.3,2.9,2.9,2.9c1.6,0,2.9-1.3,2.9-2.9
					C139.2,131.1,137.9,129.8,136.3,129.8z"/>
			</g>
			<g>
				<g>
					<path class="st1" d="M150.9,38.1H52.4c-5.6,0-10.2,4.6-10.2,10.2v98.5c0,5.6,4.6,10.2,10.2,10.2h98.5c5.6,0,10.2-4.6,10.2-10.2
						V48.3C161.1,42.7,156.6,38.1,150.9,38.1z M117.6,91c-1,2.2-1.5,4.6-1.5,6.9v20.3c0,14.4-11.6,26-26,26c-14.4,0-26-11.6-26-26
						V71.5c-2.5-0.9-4.4-2.8-5.3-5.3c-1.6-4.5,0.8-9.5,5.3-11.1c4.5-1.6,9.5,0.8,11.1,5.3c1.6,4.5-0.8,9.5-5.3,11.1v46.7
						c0,11.2,9.1,20.2,20.2,20.2s20.2-9.1,20.2-20.2v-12.3c0-1-0.8-1.8-1.9-1.8c-0.2,0-0.3,0-0.5,0.1l-6.3,1.7l16.8-16.8L117.6,91z
						 M139.2,140.9c-4.5,1.6-9.5-0.8-11.1-5.3c-1.6-4.5,0.8-9.5,5.3-11.1V77.8c0-11.2-9.1-20.2-20.2-20.2
						c-11.2,0-20.2,9.1-20.2,20.2v12.3c0,1,0.8,1.8,1.9,1.8c0.2,0,0.3,0,0.5-0.1l6.3-1.7l-16.8,16.8l0.8-1.9c1-2.2,1.5-4.6,1.5-6.9
						V77.8c0-14.4,11.6-26,26-26c14.4,0,26,11.6,26,26v46.7c2.5,0.9,4.4,2.8,5.3,5.3C146.1,134.3,143.7,139.3,139.2,140.9z"/>
				</g>
			</g>
			<g>
				<path class="st1" d="M67,60.5c-1.6,0-2.9,1.3-2.9,2.9c0,1.6,1.3,2.9,2.9,2.9s2.9-1.3,2.9-2.9C69.9,61.8,68.6,60.5,67,60.5z"/>
			</g>
		</g>
	</g>
</g>
</svg>
